PathFileType	4	(X/Y/Z)	./resultDataOpenSim/trcMotMarkerGrf/sub09/qtm-12-04.trc
DataRate	CameraRate	NumFrames	NumMarkers	Units	OrigDataRate	OrigDataStartFrame	OrigNumFrames
250.000000	250.000000	12	24	m	250.000000	301	481
Frame#	Time	L.Toe.Tip			R.Toe.Tip			L.Ankle.Lat			R.Ankle.Lat			L.Ankle.Med			R.Ankle.Med			L.Heel			R.Heel			L.Knee.Lat			R.Knee.Lat			L.Knee.Med			R.Knee.Med			L.Thigh.Upper			R.Thigh.Upper			L.ASIS			R.ASIS			V.Sacral			L.Acromium			R.Acromium			C7			L.Elbow			R.Elbow			L.Wrist.Lat			R.Wrist.Lat
		X1	Y1	Z1	X2	Y2	Z2	X3	Y3	Z3	X4	Y4	Z4	X5	Y5	Z5	X6	Y6	Z6	X7	Y7	Z7	X8	Y8	Z8	X9	Y9	Z9	X10	Y10	Z10	X11	Y11	Z11	X12	Y12	Z12	X13	Y13	Z13	X14	Y14	Z14	X15	Y15	Z15	X16	Y16	Z16	X17	Y17	Z17	X18	Y18	Z18	X19	Y19	Z19	X20	Y20	Z20	X21	Y21	Z21	X22	Y22	Z22	X23	Y23	Z23	X24	Y24	Z24

301	1.2	0.22983827	0.020830511	-0.0090035369	1.1068895	0.041146979	0.019462304	0.15210476	0.14806358	-0.075240446	0.9588592	0.053159062	0.062059655	0.19063389	0.15375759	0.014677529	0.95956264	0.092453414	-0.029092841	0.084709017	0.17498801	-0.025606562	0.88925602	0.032051804	0.016924965	0.46772983	0.43083898	-0.13492082	0.93302405	0.50900545	0.12300668	0.48295222	0.41909042	-0.011043189	0.90895489	0.49434562	0.0006933046	0.6079789	0.81443209	-0.16061317	0.69963128	0.83428737	0.20202296	0.72267148	0.88799591	-0.12545679	0.76186917	0.91523894	0.11218762	0.57802874	0.95915255	0.017481796	0.73022534	1.3549203	-0.1621809	0.72359656	1.3643677	0.17150854	0.6579395	1.4097336	0.005800246	0.58721277	1.0060739	-0.22569088	0.56387009	1.0465952	0.25755664	0.79098588	0.82684757	-0.2164754	0.64706992	0.78746446	0.28154167
302	1.204	0.23180421	0.022272039	-0.0096976189	1.1072256	0.040899863	0.019493716	0.15823701	0.15243942	-0.07660986	0.95950417	0.052935909	0.061855955	0.19722624	0.15716365	0.013130041	0.96009167	0.092557737	-0.029271118	0.09202878	0.1813289	-0.026730696	0.88939401	0.032108194	0.016880346	0.47872409	0.42953768	-0.13669338	0.9398997	0.5092484	0.12266454	0.49421362	0.41669956	-0.012984449	0.91641199	0.49557393	1.2118689e-05	0.61556779	0.81362036	-0.16033051	0.70668847	0.83507872	0.2026418	0.72964339	0.88806214	-0.12456564	0.76897337	0.91628947	0.11293857	0.58511126	0.95927673	0.017701897	0.73770503	1.3551084	-0.16213279	0.73081519	1.3647523	0.1714751	0.6650303	1.4099983	0.0057437011	0.59371791	1.0068942	-0.22553553	0.57198843	1.0464308	0.25759392	0.79571288	0.82559165	-0.21686563	0.65611886	0.78753791	0.28129664
303	1.208	0.23396316	0.023913498	-0.010421136	1.1074852	0.040682654	0.019253948	0.16477671	0.15696253	-0.077908606	0.96005276	0.052831216	0.061715306	0.20399388	0.16072681	0.011734039	0.9606143	0.09257464	-0.029533141	0.099778517	0.18785368	-0.027949972	0.8895118	0.03214183	0.016779335	0.48985806	0.42823255	-0.13841335	0.94654179	0.5097753	0.12255015	0.50564653	0.41431987	-0.01493613	0.92347511	0.49648164	-0.0006039385	0.62296023	0.81297548	-0.160114	0.71377557	0.83589236	0.20318253	0.73649322	0.88823903	-0.12372188	0.77606162	0.9172595	0.11362863	0.59213202	0.95950038	0.017992441	0.74515133	1.355337	-0.16207956	0.7379931	1.3652139	0.17142123	0.67200214	1.4103397	0.0056478482	0.6002129	1.0077527	-0.22542099	0.57999269	1.0463177	0.25761974	0.80042437	0.82436627	-0.21725784	0.66520693	0.78770335	0.28103715
304	1.212	0.23635338	0.025766836	-0.01116566	1.107679	0.040482915	0.018858886	0.17174123	0.16159687	-0.079117906	0.96037161	0.052854363	0.061655284	0.21102871	0.16445174	0.010484377	0.96100989	0.092495453	-0.029825269	0.10795493	0.19454552	-0.029271671	0.88959159	0.032153077	0.016672787	0.50113667	0.42688547	-0.14009264	0.9529413	0.5102595	0.12252766	0.51731938	0.41200352	-0.016822466	0.93010716	0.49705589	-0.001182253	0.63029024	0.81254682	-0.15989027	0.72083353	0.83672849	0.20362281	0.74327686	0.88852696	-0.12296342	0.78310104	0.91814388	0.11423805	0.59905083	0.95984245	0.018349853	0.75253688	1.3556126	-0.16202353	0.74510307	1.3657608	0.17134225	0.67884899	1.4107521	0.0055277634	0.60669693	1.0086455	-0.22535003	0.58796003	1.0462907	0.25768348	0.80509409	0.82317298	-0.21765627	0.67431818	0.78797241	0.28075601
305	1.216	0.23900251	0.027833639	-0.011938888	1.1078195	0.040306508	0.018543264	0.17913341	0.1663124	-0.080234897	0.96046888	0.052928961	0.061624356	0.21840714	0.1683278	0.0093647596	0.96125649	0.092356403	-0.030107351	0.11654485	0.20136235	-0.030633042	0.88962457	0.032156137	0.016584381	0.51258435	0.4254793	-0.14172224	0.95896529	0.5103084	0.12241577	0.52921957	0.40980718	-0.018571928	0.93629573	0.49733121	-0.0017215987	0.63771539	0.812334	-0.15955873	0.72786918	0.83758895	0.20397619	0.74999779	0.88893475	-0.1223136	0.79005875	0.91894655	0.11475166	0.60579392	0.96031725	0.018754272	0.75983158	1.3559417	-0.16196533	0.75212628	1.3664	0.17124017	0.68557947	1.4112467	0.0054030525	0.61316763	1.0095737	-0.22532343	0.59593814	1.0463723	0.25781787	0.80967704	0.82201811	-0.21805369	0.68344507	0.78835431	0.28044476
306	1.22	0.24191435	0.030096652	-0.012753282	1.1079142	0.040164614	0.018405523	0.18694773	0.17107827	-0.081269913	0.96044985	0.052987562	0.061556348	0.22615947	0.17232057	0.0083566065	0.96142557	0.092204638	-0.030365958	0.12553612	0.2082424	-0.031939677	0.88962033	0.032174714	0.016511218	0.52423222	0.4240205	-0.14326512	0.96453446	0.50988583	0.12214012	0.54116477	0.40780354	-0.020112439	0.94205708	0.49736922	-0.0021943604	0.64523406	0.81226921	-0.15907751	0.7349173	0.83845928	0.20426558	0.75663363	0.88946428	-0.12177393	0.79691837	0.91967797	0.11516093	0.61230981	0.9609291	0.019170189	0.76700809	1.3563265	-0.1619079	0.75906983	1.3671262	0.17112501	0.6922265	1.4118365	0.005283041	0.61961853	1.0105352	-0.22533353	0.60391642	1.0465583	0.25802536	0.81414962	0.82090981	-0.21844423	0.69258077	0.78884315	0.28009588
307	1.224	0.24507122	0.032527151	-0.013618303	1.1079797	0.040060215	0.018367667	0.19518273	0.17587387	-0.08223676	0.96044908	0.053009904	0.061417798	0.23429146	0.17637695	0.0074477426	0.9616139	0.092069748	-0.030599259	0.13492723	0.21512339	-0.033127398	0.88960366	0.032229359	0.016440102	0.5360977	0.422541	-0.14468645	0.96974208	0.50922805	0.12181102	0.55298601	0.40601924	-0.021383086	0.94743116	0.49723043	-0.0025675483	0.65268113	0.8122625	-0.15852221	0.74199796	0.83931606	0.20450839	0.76317303	0.89010307	-0.12133273	0.80367609	0.92035337	0.11546529	0.61868072	0.96166331	0.01956791	0.77404665	1.3567686	-0.16185648	0.76595395	1.3679258	0.17100615	0.69883704	1.4125179	0.0051680937	0.62603808	1.0115228	-0.22536531	0.61182439	1.0468247	0.25827241	0.81852211	0.81985098	-0.21883145	0.70170611	0.78942289	0.27970382
308	1.228	0.24844791	0.035108336	-0.014533934	1.108036	0.039983251	0.018334855	0.20383471	0.18069077	-0.083156485	0.96055551	0.053002339	0.061225211	0.24279275	0.1804398	0.0066308642	0.96188158	0.091958281	-0.030801608	0.14473436	0.2219586	-0.034199602	0.8895979	0.032323284	0.016363387	0.5481795	0.42110231	-0.14598431	0.97476295	0.50853811	0.12161646	0.56482163	0.40440191	-0.022430784	0.95247058	0.49695411	-0.0028261808	0.6599176	0.81227927	-0.15799835	0.7490968	0.84014505	0.20471563	0.76961282	0.89083136	-0.120981	0.81033203	0.92099441	0.11567766	0.62509683	0.96248823	0.019942058	0.78093436	1.3572726	-0.16181552	0.7727895	1.3687901	0.17088747	0.70544597	1.4132814	0.005058208	0.63241525	1.0125295	-0.22540632	0.61958558	1.0471513	0.25851268	0.82281949	0.81883955	-0.21922045	0.71079631	0.79008601	0.27927027
309	1.232	0.25204023	0.037856879	-0.015484891	1.1080902	0.039919937	0.018299995	0.21288092	0.18552575	-0.084056188	0.96076176	0.052969211	0.06102619	0.25163317	0.18446989	0.0059012409	0.96222855	0.091866846	-0.030959613	0.15498952	0.22872728	-0.035226417	0.88960866	0.032437023	0.016289813	0.56045926	0.41976945	-0.1471709	0.97968594	0.50789609	0.12163336	0.57705309	0.4029253	-0.023420148	0.95722347	0.49656264	-0.0029732345	0.6669406	0.8123489	-0.15753466	0.75616889	0.84094565	0.20489261	0.77594977	0.89163719	-0.12071258	0.81688723	0.92162922	0.11582453	0.63166472	0.96337762	0.020306676	0.78766239	1.3578445	-0.16178905	0.77957298	1.3697207	0.17077033	0.71206099	1.4141266	0.0049564185	0.63874527	1.0135491	-0.22544811	0.62715409	1.0475342	0.25871391	0.82706018	0.81787889	-0.21961334	0.71987158	0.7908561	0.27882475
310	1.236	0.25587984	0.040818165	-0.01645045	1.1081382	0.039866607	0.018291947	0.22227409	0.19037217	-0.084950146	0.9609937	0.052900899	0.060863614	0.2607739	0.18845766	0.0052507418	0.96260773	0.091795831	-0.031057239	0.16570715	0.23544768	-0.03629744	0.88962358	0.032539183	0.016241857	0.57290093	0.41857482	-0.14823684	0.98448188	0.50732481	0.12179556	0.58979436	0.40166158	-0.024443182	0.96171895	0.49608147	-0.0030180779	0.67381639	0.81251092	-0.15709625	0.76316264	0.84172223	0.20504309	0.78218815	0.89252079	-0.12051469	0.82334276	0.92228448	0.11593202	0.63832715	0.96432293	0.020675636	0.79422613	1.3584887	-0.16178282	0.78629756	1.3707237	0.17065557	0.71866942	1.4150545	0.004864788	0.64503	1.0145769	-0.2254826	0.63451919	1.0479804	0.25887428	0.83125827	0.81698393	-0.22001374	0.72905379	0.79179845	0.27844366
311	1.24	0.26001343	0.044032401	-0.017425501	1.1081747	0.039828582	0.01830771	0.23195783	0.19521306	-0.085824462	0.96119188	0.05278318	0.060752249	0.270186	0.19241012	0.004658414	0.96296009	0.091751242	-0.031086373	0.17684628	0.24216449	-0.037432721	0.88962694	0.032607018	0.016237238	0.58546697	0.4175246	-0.14916221	0.989063	0.50682849	0.12198498	0.60271774	0.40068614	-0.025418432	0.96597046	0.49555191	-0.0029739321	0.68058929	0.81278711	-0.15665423	0.77004257	0.84247721	0.20517461	0.78834063	0.89348251	-0.12036991	0.82970253	0.92297619	0.11601626	0.64497114	0.96532484	0.021051303	0.80062662	1.3592093	-0.16180432	0.79296362	1.3717985	0.17054096	0.72524718	1.4160588	0.0047809284	0.65126981	1.015612	-0.22550098	0.64173001	1.0484998	0.2590339	0.83544171	0.81617287	-0.22042804	0.73849516	0.79297925	0.27820236
312	1.244	0.26447338	0.047503242	-0.018428058	1.1081956	0.039806684	0.018326556	0.24188281	0.20002455	-0.086650014	0.9613552	0.05262125	0.060674883	0.27985878	0.19633022	0.0040946243	0.96324911	0.091737101	-0.03105602	0.1883254	0.24889039	-0.038520688	0.88961374	0.032637519	0.016270994	0.59813374	0.41662653	-0.14994875	0.99330805	0.50639149	0.12208155	0.61550367	0.39998519	-0.026239751	0.96999497	0.49502511	-0.002858969	0.68724795	0.81319305	-0.15622205	0.77678939	0.84321312	0.20529745	0.79441462	0.89451266	-0.12026227	0.83597706	0.92370861	0.11608736	0.65151328	0.96639035	0.021433377	0.80686876	1.3600093	-0.16186288	0.79957826	1.3729351	0.17042078	0.73176202	1.4171336	0.0046995363	0.65745399	1.0166584	-0.22549268	0.64888948	1.0491023	0.25925668	0.83964829	0.81545729	-0.2208556	0.74814952	0.79437144	0.27805519
